<?xml version="1.0" encoding="utf-8"?>
<!-- Generator: Adobe Illustrator 16.0.0, SVG Export Plug-In . SVG Version: 6.00 Build 0)  -->
<!DOCTYPE svg PUBLIC "-//W3C//DTD SVG 1.1//EN" "http://www.w3.org/Graphics/SVG/1.1/DTD/svg11.dtd">
<svg version="1.1" id="Layer_1" xmlns="http://www.w3.org/2000/svg" xmlns:xlink="http://www.w3.org/1999/xlink" x="0px" y="0px"
	 width="400px" height="191.315px" viewBox="0 0 400 191.315" enable-background="new 0 0 400 191.315" xml:space="preserve">
<g>
	<g>
		<path fill="none" stroke="#231F20" stroke-width="3.8528" stroke-linecap="round" stroke-miterlimit="1" d="M242.439,184.206
			c0,0,46.841-14.944,99.925-12.889c39.929,1.543,47.139,6.212,47.139,6.212"/>
	</g>
	<g>
		<path fill="none" stroke="#F395BE" stroke-width="3.2107" stroke-linecap="round" stroke-miterlimit="1" d="M241.156,183.309
			c0,0,46.845-14.943,99.929-12.878c39.919,1.544,47.129,6.202,47.129,6.202"/>
	</g>
	<linearGradient id="SVGID_1_" gradientUnits="userSpaceOnUse" x1="204.6396" y1="134.2314" x2="204.6396" y2="10">
		<stop  offset="0.1289" style="stop-color:#EB519C"/>
		<stop  offset="0.2493" style="stop-color:#EC5E92"/>
		<stop  offset="0.4705" style="stop-color:#F07F78"/>
		<stop  offset="0.7658" style="stop-color:#F5B54E"/>
		<stop  offset="0.8461" style="stop-color:#F7C542"/>
	</linearGradient>
	<path fill="url(#SVGID_1_)" d="M312.996,134.231c0.659-4.855,1.029-9.803,1.029-14.838C314.025,58.972,265.061,10,204.641,10
		C144.225,10,95.255,58.972,95.255,119.394c0,5.035,0.37,9.982,1.029,14.838H312.996z"/>
	
		<line fill="none" stroke="#EB008B" stroke-width="1.0743" stroke-miterlimit="10" x1="11.533" y1="134.231" x2="389.074" y2="134.231"/>
	<g>
		<path fill="#231F20" stroke="#231F20" stroke-width="1.9264" stroke-miterlimit="10" d="M17.436,125.681h-5.902V84.728h4.798
			l13.52,19.89l13.514-19.89h4.677v40.953h-5.852V96.829l-10.706,15.922h-3.334L17.436,96.829V125.681z"/>
		<path fill="#231F20" stroke="#231F20" stroke-width="1.9264" stroke-miterlimit="10" d="M78.385,90.393
			c3.745-3.806,9.01-6.202,14.749-6.202c5.792,0,11.002,2.396,14.802,6.202c3.687,3.815,6.085,9.015,6.085,14.818
			c0,5.776-2.398,10.98-6.085,14.796c-3.8,3.858-9.01,6.197-14.802,6.197c-5.739,0-11.004-2.339-14.749-6.197
			c-3.685-3.815-6.085-9.02-6.085-14.796C72.3,99.407,74.7,94.208,78.385,90.393z M103.719,94.615
			c-2.751-2.761-6.551-4.453-10.585-4.453c-4.042,0-7.783,1.692-10.479,4.453c-2.687,2.693-4.386,6.437-4.386,10.596
			c0,4.142,1.699,7.88,4.386,10.568c2.695,2.761,6.437,4.453,10.479,4.453c4.034,0,7.834-1.692,10.585-4.453
			c2.634-2.688,4.333-6.379,4.333-10.568C108.052,100.984,106.353,97.309,103.719,94.615z"/>
		<path fill="#231F20" stroke="#231F20" stroke-width="1.9264" stroke-miterlimit="10" d="M138.337,125.681V84.656l4.56,0.071
			l19.959,28.828V84.728h5.848v40.953h-4.67l-19.787-28.627v28.627H138.337z"/>
		<path fill="#231F20" stroke="#231F20" stroke-width="1.9264" stroke-miterlimit="10" d="M203.673,125.854V90.686h-12.408v-5.958
			h30.664v5.958h-12.354v35.168H203.673z"/>
		<path fill="#231F20" stroke="#231F20" stroke-width="1.9264" stroke-miterlimit="10" d="M267.771,113.622h-14.696
			c-1.574,3.749-3.614,8.666-4.91,12.059h-6.377l16.441-41.49h4.337l16.44,41.49h-6.315L267.771,113.622z M255.305,108.059h10.183
			l-5.035-14.44L255.305,108.059z"/>
		<path fill="#231F20" stroke="#231F20" stroke-width="1.9264" stroke-miterlimit="10" d="M300.282,125.681V84.656l4.562,0.071
			l19.952,28.828V84.728h5.844v40.953h-4.672l-19.786-28.627v28.627H300.282z"/>
		<path fill="#231F20" stroke="#231F20" stroke-width="1.9264" stroke-miterlimit="10" d="M377.848,113.622h-14.695
			c-1.576,3.749-3.622,8.666-4.919,12.059h-6.377l16.448-41.49h4.328l16.441,41.49h-6.316L377.848,113.622z M365.384,108.059h10.173
			l-5.035-14.44L365.384,108.059z"/>
	</g>
	<path fill="#231F20" d="M61.159,106.855c0,1.069-0.855,1.94-1.925,1.94c-1.068,0-1.926-0.871-1.926-1.94
		c0-1.054,0.857-1.917,1.926-1.917C60.304,104.938,61.159,105.802,61.159,106.855z"/>
	<path fill="#231F20" d="M130.191,106.855c0,1.069-0.863,1.94-1.925,1.94c-1.066,0-1.934-0.871-1.934-1.94
		c0-1.054,0.867-1.917,1.934-1.917C129.328,104.938,130.191,105.802,130.191,106.855z"/>
	<path fill="#231F20" d="M186.697,106.855c0,1.069-0.865,1.94-1.932,1.94c-1.062,0-1.919-0.871-1.919-1.94
		c0-1.054,0.857-1.917,1.919-1.917C185.832,104.938,186.697,105.802,186.697,106.855z"/>
	<path fill="#231F20" d="M232.128,106.855c0,1.069-0.866,1.94-1.927,1.94c-1.062,0-1.928-0.871-1.928-1.94
		c0-1.054,0.865-1.917,1.928-1.917C231.262,104.938,232.128,105.802,232.128,106.855z"/>
	<path fill="#231F20" d="M289.28,106.855c0,1.069-0.867,1.94-1.938,1.94c-1.05,0-1.917-0.871-1.917-1.94
		c0-1.054,0.867-1.917,1.917-1.917C288.413,104.938,289.28,105.802,289.28,106.855z"/>
	<path fill="#231F20" d="M347.469,106.855c0,1.069-0.858,1.94-1.92,1.94s-1.929-0.871-1.929-1.94c0-1.054,0.867-1.917,1.929-1.917
		S347.469,105.802,347.469,106.855z"/>
	<polyline fill="none" stroke="#FFFFFF" stroke-width="0.6421" stroke-miterlimit="10" points="14.071,123.765 14.071,87.268 
		29.789,109.42 44.999,87.268 44.999,123.765 	"/>
	<path fill="none" stroke="#FFFFFF" stroke-width="0.6421" stroke-miterlimit="10" d="M111.464,105.355
		c0,9.983-8.101,18.088-18.093,18.088c-9.987,0-18.083-8.104-18.083-18.088c0-9.988,8.096-18.088,18.083-18.088
		C103.363,87.268,111.464,95.367,111.464,105.355z"/>
	<polyline fill="none" stroke="#FFFFFF" stroke-width="0.6421" stroke-miterlimit="10" points="141.428,123.443 141.428,87.268 
		165.619,123.443 165.619,87.268 	"/>
	
		<line fill="none" stroke="#FFFFFF" stroke-width="0.6421" stroke-miterlimit="10" x1="193.333" y1="87.268" x2="219.664" y2="87.268"/>
	
		<line fill="none" stroke="#FFFFFF" stroke-width="0.6421" stroke-miterlimit="10" x1="206.503" y1="87.268" x2="206.503" y2="124.09"/>
	<g>
		<polyline fill="none" stroke="#FFFFFF" stroke-width="0.6421" stroke-miterlimit="10" points="245.099,123.443 260.393,86.189 
			275.1,124.09 		"/>
		
			<line fill="none" stroke="#FFFFFF" stroke-width="0.6421" stroke-miterlimit="10" x1="250.445" y1="110.422" x2="269.791" y2="110.422"/>
	</g>
	<polyline fill="none" stroke="#FFFFFF" stroke-width="0.6421" stroke-miterlimit="10" points="303.363,123.443 303.363,87.268 
		327.558,123.443 327.558,87.268 	"/>
	<g>
		<g>
			<path fill="#231F20" d="M302.865,122.504c-0.185,0.058-0.368,0.101-0.536,0.148c-0.181,0.043-0.381,0.091-0.557,0.134
				l-1.147,0.297l-2.248,0.6c-0.724,0.23-1.457,0.445-2.207,0.662c-0.73,0.215-1.488,0.44-2.248,0.689
				c-1.466,0.465-2.939,0.944-4.396,1.434c-1.448,0.483-2.914,1.007-4.389,1.553c-1.473,0.546-2.911,1.112-4.327,1.716
				c-1.414,0.599-2.813,1.236-4.203,1.917c-0.684,0.364-1.384,0.704-2.047,1.068c-0.683,0.351-1.356,0.714-2.003,1.103
				c-0.6,0.35-1.242,0.748-1.922,1.18c-0.328,0.229-0.638,0.445-0.952,0.66c-0.285,0.217-0.589,0.432-0.894,0.657
				c-0.294,0.239-0.587,0.489-0.875,0.714c-0.284,0.216-0.546,0.479-0.8,0.752c-0.513,0.451-0.985,1.012-1.421,1.636
				c-0.441,0.622-0.736,1.227-0.903,1.792c-0.061,0.172-0.094,0.331-0.118,0.488c-0.033,0.173-0.058,0.331-0.093,0.456
				c-0.051,0.373-0.034,0.69,0.052,0.929c0.024,0.149,0.056,0.273,0.099,0.398c0.034,0.125,0.094,0.239,0.188,0.34
				c0.124,0.226,0.335,0.441,0.606,0.657c0.191,0.139,0.453,0.307,0.816,0.488c0.168,0.058,0.338,0.125,0.489,0.163
				c0.158,0.054,0.336,0.11,0.496,0.168c0.345,0.115,0.707,0.182,1.086,0.226c0.361,0.038,0.733,0.091,1.118,0.139
				c0.381,0.067,0.76,0.092,1.139,0.11c0.386,0.014,0.768,0.038,1.146,0.058h1.146c0.194,0,0.386-0.01,0.572-0.02
				c0.194-0.014,0.389-0.014,0.58-0.014c0.371,0,0.768-0.011,1.154-0.024c0.396-0.019,0.794-0.033,1.164-0.067l2.331-0.168
				l2.368-0.157l2.333-0.163l2.366-0.125c0.79-0.053,1.591-0.092,2.374-0.092c0.794-0.019,1.584,0,2.378,0.059
				c0.393,0,0.799,0,1.203,0.033c0.395,0.024,0.792,0.071,1.202,0.125c0.374,0.058,0.767,0.124,1.19,0.182
				c0.402,0.072,0.799,0.163,1.178,0.264c0.8,0.191,1.584,0.488,2.377,0.862c0.402,0.216,0.757,0.465,1.059,0.738
				c0.188,0.135,0.361,0.273,0.503,0.422c0.153,0.158,0.298,0.302,0.441,0.475c0.321,0.407,0.556,0.795,0.69,1.146
				c0.103,0.216,0.191,0.422,0.269,0.628c0.052,0.201,0.13,0.417,0.177,0.633c0.084,0.412,0.12,0.843,0.12,1.274v1.112
				c-0.026,0.043-0.036,0.091-0.036,0.148c-0.084,0.872-0.312,1.692-0.688,2.449c-0.17,0.388-0.364,0.752-0.583,1.116
				c-0.21,0.35-0.462,0.7-0.724,1.055c-0.254,0.316-0.515,0.637-0.783,0.93c-0.271,0.273-0.565,0.57-0.86,0.863
				c-0.57,0.579-1.179,1.111-1.838,1.6c-0.63,0.489-1.277,0.954-1.934,1.376c-0.674,0.455-1.35,0.862-2.04,1.284
				c-1.38,0.781-2.797,1.52-4.2,2.2c-1.416,0.681-2.856,1.328-4.331,1.922c-1.476,0.623-2.939,1.188-4.414,1.725
				c-0.764,0.26-1.507,0.532-2.248,0.797c-0.73,0.248-1.463,0.508-2.199,0.747l-2.248,0.738l-2.291,0.69
				c-0.74,0.216-1.48,0.445-2.223,0.651c-0.765,0.226-1.525,0.44-2.315,0.656c-1.533,0.456-3.031,0.873-4.539,1.228l-2.29,0.613
				c-0.372,0.076-0.751,0.168-1.139,0.259c-0.379,0.101-0.768,0.206-1.146,0.321l-4.582,1.055l-2.324,0.498l-1.716,0.364
				l-0.609,0.115c-0.385,0.091-0.724,0.02-1.027-0.183c-0.295-0.196-0.479-0.479-0.529-0.843c-0.074-0.374-0.027-0.714,0.17-1.007
				c0.185-0.307,0.472-0.504,0.857-0.58h0.077l0.573-0.082l0.57-0.124l1.147-0.158c0.376-0.092,0.765-0.158,1.143-0.226
				c0.372-0.058,0.757-0.129,1.138-0.182l4.626-0.901l2.281-0.483c0.386-0.092,0.767-0.173,1.143-0.255
				c0.392-0.086,0.768-0.177,1.148-0.282c0.767-0.168,1.517-0.34,2.273-0.522c0.741-0.168,1.498-0.34,2.265-0.556
				c0.758-0.182,1.517-0.364,2.265-0.557c0.743-0.191,1.507-0.397,2.267-0.613c0.389-0.101,0.758-0.216,1.129-0.33
				c0.369-0.111,0.741-0.226,1.119-0.326l2.207-0.647c1.5-0.465,2.975-0.953,4.43-1.457c1.458-0.508,2.926-1.045,4.406-1.61
				c1.404-0.579,2.847-1.193,4.287-1.84c0.707-0.326,1.399-0.657,2.08-0.997c0.68-0.354,1.366-0.704,2.036-1.103
				c0.69-0.373,1.34-0.771,1.971-1.193c0.618-0.417,1.248-0.862,1.888-1.327c0.287-0.216,0.582-0.455,0.868-0.705
				c0.284-0.239,0.58-0.498,0.877-0.771c0.268-0.249,0.546-0.488,0.773-0.771c0.252-0.273,0.506-0.556,0.741-0.862
				c0.228-0.298,0.428-0.59,0.615-0.911c0.185-0.326,0.361-0.633,0.527-0.964c0.146-0.33,0.249-0.661,0.348-0.977
				c0.094-0.332,0.175-0.682,0.218-1.055c0.034-0.034,0.043-0.082,0.043-0.125v-0.412c0.034-0.125,0.043-0.293,0.043-0.542
				l-0.119-1.011c-0.158-0.681-0.456-1.309-0.858-1.841c-0.397-0.522-0.944-0.953-1.591-1.318c-0.608-0.291-1.289-0.556-2.082-0.771
				c-0.63-0.192-1.371-0.317-2.215-0.408c-0.378-0.048-0.765-0.101-1.146-0.124c-0.369-0.024-0.757-0.033-1.136-0.033
				c-0.791-0.058-1.567-0.082-2.334-0.058c-0.765,0-1.541,0.033-2.325,0.091l-2.333,0.124l-2.323,0.206l-2.331,0.158l-2.324,0.216
				l-2.377,0.158c-0.218,0-0.43,0-0.613,0c-0.188,0-0.379,0.01-0.563,0.033h-1.229c-0.391,0.034-0.776,0.049-1.191,0.024
				c-0.402-0.014-0.816-0.033-1.229-0.058c-0.377-0.057-0.774-0.1-1.187-0.148c-0.405-0.033-0.826-0.115-1.254-0.226
				c-0.414-0.081-0.826-0.196-1.229-0.364c-0.468-0.191-0.877-0.406-1.232-0.656c-0.379-0.239-0.723-0.58-1.02-1.025
				c-0.326-0.451-0.54-0.921-0.614-1.371c-0.134-0.479-0.178-0.954-0.117-1.442c0-0.412,0.067-0.854,0.191-1.352
				c0.12-0.432,0.261-0.844,0.458-1.236c0.185-0.412,0.386-0.786,0.613-1.174c0.244-0.384,0.488-0.748,0.757-1.056
				c0.254-0.325,0.522-0.646,0.794-0.938c0.301-0.297,0.605-0.604,0.9-0.877c0.292-0.293,0.597-0.565,0.901-0.839
				c0.623-0.557,1.263-1.055,1.922-1.524c0.646-0.45,1.32-0.905,2.003-1.337c0.674-0.432,1.354-0.863,2.039-1.275
				c0.682-0.407,1.371-0.79,2.085-1.179c0.71-0.388,1.426-0.747,2.149-1.088c0.717-0.341,1.431-0.685,2.141-1.035
				c0.707-0.331,1.424-0.656,2.146-0.987c0.725-0.331,1.45-0.638,2.184-0.944c1.464-0.623,2.938-1.212,4.419-1.769
				c1.464-0.556,2.94-1.111,4.404-1.648c0.768-0.283,1.517-0.547,2.25-0.805c0.731-0.265,1.49-0.514,2.248-0.763
				c0.388-0.134,0.758-0.259,1.122-0.374c0.376-0.125,0.74-0.248,1.126-0.35l1.147-0.379l1.144-0.358
				c0.513-0.149,1.001-0.082,1.483,0.157c0.488,0.249,0.783,0.623,0.934,1.146c0.152,0.522,0.108,1.021-0.127,1.486
				c-0.254,0.488-0.64,0.795-1.186,0.934C302.926,122.489,302.899,122.504,302.865,122.504z"/>
		</g>
		<g>
			<path fill="#231F20" d="M307.373,141.546l2.944-0.489l0.609-1.84c0.107-0.385,0.261-0.797,0.446-1.285
				c0.06-0.191,0.126-0.417,0.208-0.647c0.076-0.201,0.163-0.431,0.244-0.646l0.489-1.261l0.531-1.312l0.362-0.695
				c0.026-0.082,0.101-0.206,0.201-0.365l0.135-0.248l0.196-0.24c0.033-0.033,0.05-0.052,0.05-0.091
				c0.024-0.02,0.065-0.043,0.118-0.077c0.023-0.081,0.109-0.172,0.244-0.239l0.242-0.168l0.407-0.163
				c0.055,0,0.091-0.009,0.132-0.019c0.026-0.015,0.086-0.015,0.203-0.015c0.051-0.033,0.094-0.043,0.118-0.033
				c0.026,0.014,0.073,0.033,0.124,0.033c0.197,0,0.364,0,0.489,0.033l0.488,0.24l0.405,0.373l0.244,0.365l0.125,0.282l0.076,0.413
				v0.656c-0.017,0.058-0.04,0.148-0.04,0.282l-0.118,0.455c-0.05,0.14-0.086,0.264-0.103,0.389c-0.007,0.124-0.05,0.235-0.098,0.34
				c-0.061,0.134-0.104,0.259-0.146,0.374c-0.041,0.102-0.084,0.216-0.142,0.331c-0.076,0.201-0.17,0.431-0.244,0.647
				c-0.076,0.225-0.171,0.44-0.285,0.656l-0.575,1.27l-0.563,1.218l-0.124,0.249l34.9-5.756c0.452-0.091,0.882,0.023,1.289,0.292
				c0.386,0.297,0.63,0.671,0.707,1.127c0.071,0.465-0.026,0.896-0.305,1.294c-0.278,0.397-0.663,0.623-1.121,0.704h-0.081
				l-36.505,4.511c-0.124,0.292-0.277,0.574-0.445,0.823c-0.16,0.273-0.312,0.537-0.446,0.811c-0.083,0.216-0.16,0.416-0.229,0.613
				c-0.064,0.177-0.132,0.384-0.175,0.608c-0.305,0.844-0.592,1.683-0.858,2.512c-0.277,0.839-0.539,1.683-0.816,2.554
				c-0.306,0.839-0.583,1.692-0.835,2.546c-0.271,0.839-0.515,1.678-0.759,2.506c-0.142,0.456-0.262,0.878-0.394,1.309
				c-0.129,0.422-0.254,0.839-0.39,1.271l-0.681,2.588l-0.329,1.261c-0.06,0.216-0.11,0.431-0.151,0.661
				c-0.042,0.216-0.093,0.432-0.144,0.656c-0.107,0.432-0.21,0.854-0.304,1.284c-0.101,0.432-0.185,0.854-0.271,1.294
				c-0.082,0.433-0.149,0.863-0.235,1.295c-0.048,0.44-0.117,0.872-0.175,1.309c-0.026,0.211-0.043,0.431-0.06,0.632
				c-0.018,0.206-0.018,0.422-0.018,0.638c-0.05,0.216-0.05,0.417,0,0.613c0,0.273,0.008,0.465,0.041,0.565
				c0,0.148,0.01,0.24,0.036,0.298c0,0.043,0.017,0.076,0.034,0.091c0.007,0.02,0.007,0.043,0.007,0.067l0.053,0.033
				c0.072,0,0.124,0,0.148-0.033c0.168-0.024,0.331-0.115,0.498-0.249c0.137-0.102,0.285-0.23,0.446-0.341
				c0.17-0.124,0.312-0.249,0.448-0.388c0.167-0.149,0.318-0.293,0.47-0.451c0.15-0.163,0.297-0.33,0.429-0.488
				c0.522-0.662,1.054-1.352,1.593-2.09c0.252-0.354,0.489-0.719,0.741-1.078c0.244-0.379,0.489-0.753,0.733-1.127l1.355-2.281
				l0.681-1.159l0.626-1.137l2.482-4.734l1.146-2.416l0.583-1.228l0.521-1.217c0.084-0.201,0.218-0.325,0.41-0.407
				c0.187-0.058,0.381-0.043,0.575,0.033c0.437,0.183,0.556,0.514,0.372,0.979v0.043l-0.626,1.184l-0.604,1.227l-1.231,2.358
				c-0.405,0.795-0.814,1.591-1.246,2.387c-0.412,0.781-0.851,1.576-1.282,2.363l-0.664,1.188l-0.648,1.185l-1.388,2.281
				l-1.467,2.296c-0.278,0.383-0.546,0.747-0.8,1.121c-0.262,0.364-0.54,0.729-0.835,1.093c-0.124,0.183-0.285,0.35-0.452,0.522
				c-0.168,0.168-0.322,0.34-0.489,0.532c-0.381,0.388-0.75,0.681-1.104,0.929c-0.278,0.159-0.513,0.308-0.74,0.423l-0.446,0.115
				c-0.067,0-0.11,0.009-0.153,0.033c-0.026,0-0.081,0.02-0.134,0.02c-0.024,0-0.067,0-0.137,0c-0.065,0-0.142-0.02-0.191-0.053
				c-0.051,0-0.108-0.015-0.178-0.039c-0.067-0.019-0.134-0.052-0.185-0.076l-0.285-0.264c-0.196-0.159-0.305-0.307-0.331-0.432
				c-0.058-0.091-0.093-0.168-0.093-0.249c-0.021-0.076-0.049-0.148-0.065-0.201c-0.05-0.173-0.076-0.307-0.076-0.412
				c-0.067-0.134-0.093-0.259-0.093-0.359c0-0.115-0.01-0.24-0.044-0.365v-0.738c0-0.229,0-0.454,0-0.703
				c0-0.25,0.017-0.479,0.044-0.695l0.126-1.352c0.053-0.216,0.087-0.441,0.108-0.681c0-0.249,0.035-0.489,0.06-0.705l0.407-2.654
				l0.242-1.352l0.244-1.304c0.185-0.911,0.369-1.783,0.532-2.68c0.158-0.887,0.353-1.764,0.57-2.636
				c0.103-0.465,0.211-0.93,0.305-1.409c0.101-0.475,0.218-0.953,0.354-1.418c-0.17-0.049-0.295-0.102-0.372-0.159
				c-0.297-0.206-0.395-0.503-0.287-0.853v-0.043l0.489-1.228l0.244-0.646l0.251-0.613l1.02-2.454l0.448-1.103l0.167-0.532
				c0.053-0.239,0.12-0.488,0.178-0.714c0.066-0.24,0.153-0.465,0.228-0.719l-2.113,0.254c-0.252,0.053-0.463,0-0.643-0.163
				c-0.176-0.134-0.278-0.34-0.31-0.574c-0.05-0.222,0-0.423,0.144-0.604C306.959,141.713,307.155,141.603,307.373,141.546z
				 M316.44,134.721h-0.05v0.043C316.391,134.744,316.417,134.721,316.44,134.721z"/>
		</g>
		<g>
			<path fill="#231F20" d="M321.545,151.764l-0.115,0.239l-0.129,0.216c-0.024,0.148-0.094,0.307-0.209,0.432
				c-0.043,0.182-0.109,0.34-0.177,0.498c-0.077,0.173-0.135,0.307-0.23,0.455l-0.359,0.93l-0.371,0.979
				c-0.211,0.637-0.438,1.27-0.657,1.906c-0.218,0.639-0.419,1.295-0.615,1.941l-0.479,1.918l-0.218,0.986l-0.15,0.979l-0.128,0.978
				v0.896c0,0.068,0.017,0.125,0.024,0.216c0.009,0.081,0.009,0.149,0.009,0.192c0.034,0.071,0.043,0.114,0.043,0.172
				c0,0.048,0.024,0.091,0.052,0.125h0.032c0.032,0,0.049,0,0.065-0.023c0.009-0.011,0.035-0.011,0.053-0.011l0.338-0.172
				c0.168-0.091,0.376-0.249,0.653-0.499l0.616-0.689c0.101-0.139,0.201-0.264,0.297-0.389c0.089-0.124,0.192-0.249,0.269-0.383
				c0.194-0.273,0.38-0.547,0.554-0.796c0.18-0.272,0.348-0.546,0.513-0.843l0.937-1.759c0.598-1.271,1.129-2.531,1.592-3.716
				c0.144-0.306,0.252-0.622,0.345-0.938c0.103-0.331,0.211-0.661,0.305-0.987c0.061-0.14,0.108-0.288,0.175-0.446
				c0.043-0.157,0.104-0.325,0.163-0.489l0.125-0.497v-0.034l0.076-0.191v-0.125c0.026-0.033,0.043-0.081,0.043-0.124
				c0.099-0.479,0.343-0.83,0.73-1.069c0.38-0.249,0.809-0.316,1.266-0.206c0.387,0.082,0.688,0.264,0.916,0.556
				c0.237,0.273,0.371,0.614,0.397,1.002l0.041,0.565c-0.036,0.023-0.041,0.058-0.041,0.081l-0.051,0.082l-0.033,0.202l-0.043,0.091
				h0.043l-0.076,0.157v0.092l-0.211,0.728l-0.12,0.738c-0.064,0.135-0.091,0.259-0.099,0.364c-0.025,0.11-0.035,0.235-0.069,0.365
				c-0.167,0.93-0.285,1.906-0.358,2.903c-0.034,0.25-0.044,0.489-0.044,0.738c0,0.24,0,0.479,0,0.695l0.074,0.656
				c0,0.125,0.017,0.24,0.043,0.316c0,0.125,0.018,0.183,0.041,0.216h0.043c0.103-0.066,0.271-0.168,0.489-0.34l0.488-0.489
				l0.453-0.522c0.077-0.091,0.163-0.183,0.219-0.273c0.076-0.086,0.146-0.201,0.239-0.292l0.437-0.58
				c0.06-0.115,0.117-0.216,0.184-0.307c0.077-0.091,0.151-0.191,0.228-0.307c0.138-0.216,0.262-0.432,0.388-0.623
				c0.125-0.216,0.263-0.432,0.396-0.647l0.364-0.647l0.368-0.627l0.731-1.338l0.659-1.309l0.657-1.395
				c0.04-0.1,0.093-0.215,0.136-0.315c0.034-0.115,0.089-0.23,0.142-0.331l0.127-0.364l0.158-0.33
				c0.086-0.25,0.244-0.408,0.472-0.509c0.229-0.101,0.456-0.115,0.664-0.024c0.223,0.082,0.391,0.24,0.491,0.465
				c0.108,0.23,0.135,0.466,0.048,0.682l-0.071,0.124l-1.477,2.693l-0.743,1.305l-0.73,1.351c-0.142,0.196-0.278,0.412-0.412,0.647
				l-0.371,0.661c-0.125,0.226-0.271,0.432-0.402,0.656c-0.138,0.216-0.271,0.432-0.406,0.647l-0.867,1.261
				c-0.127,0.229-0.277,0.445-0.445,0.646c-0.153,0.197-0.321,0.412-0.489,0.628l-0.565,0.623l-0.328,0.273
				c-0.117,0.109-0.252,0.215-0.42,0.282l-0.479,0.25c-0.163,0.058-0.28,0.081-0.331,0.081h-0.453
				c-0.076-0.023-0.163-0.048-0.261-0.081c-0.094-0.01-0.17-0.058-0.221-0.125l-0.338-0.239c-0.084-0.11-0.134-0.201-0.184-0.293
				c-0.035-0.072-0.084-0.148-0.135-0.239c-0.108-0.216-0.178-0.389-0.204-0.488l-0.127-0.408c-0.021-0.14-0.038-0.287-0.058-0.421
				c-0.017-0.159-0.05-0.297-0.101-0.441c-0.06-0.264-0.093-0.537-0.103-0.796c-0.015-0.264-0.031-0.513-0.065-0.762l-1.138,1.884
				l-1.152,1.797c-0.381,0.58-0.791,1.146-1.23,1.725c-0.213,0.293-0.44,0.581-0.665,0.839c-0.237,0.25-0.499,0.522-0.801,0.796
				c-0.134,0.135-0.287,0.259-0.455,0.389c-0.151,0.124-0.338,0.234-0.53,0.34c-0.1,0.058-0.201,0.11-0.297,0.145
				c-0.098,0.047-0.191,0.091-0.309,0.148c-0.161,0.047-0.285,0.081-0.371,0.081c-0.051,0.023-0.115,0.044-0.202,0.044
				c-0.017,0-0.05,0.014-0.076,0.032h-0.338c-0.041,0-0.099-0.009-0.142-0.019c-0.034-0.014-0.087-0.014-0.142-0.014
				c-0.271-0.111-0.467-0.217-0.575-0.293c-0.16-0.105-0.277-0.23-0.371-0.364l-0.202-0.407c-0.043-0.148-0.093-0.254-0.116-0.355
				c-0.024-0.091-0.051-0.191-0.084-0.306l-0.077-0.614v-1.145l0.077-1.055l0.287-2.138l0.377-2.032l0.85-4.089l0.619-3.062
				l0.115-0.504l0.086-0.522c0.107-0.465,0.352-0.829,0.74-1.088c0.369-0.239,0.8-0.34,1.263-0.264
				c0.463,0.115,0.827,0.364,1.079,0.738c0.26,0.388,0.352,0.81,0.26,1.274L321.545,151.764z"/>
		</g>
		<g>
			<path fill="#231F20" d="M341.523,143.386c0.228-0.547,0.422-1.093,0.623-1.648c0.185-0.532,0.379-1.079,0.565-1.625l0.573-1.634
				c0.073-0.307,0.167-0.58,0.268-0.839c0.102-0.264,0.186-0.523,0.262-0.796c0.194-0.547,0.379-1.088,0.554-1.648
				c0.17-0.565,0.347-1.131,0.505-1.702l0.496-1.634l0.244-0.854v-0.043l0.207-0.704l0.033-0.067l0.048-0.091
				c0.153-0.455,0.458-0.786,0.877-0.979c0.42-0.191,0.868-0.191,1.333,0c0.47,0.158,0.783,0.456,0.975,0.854
				c0.194,0.408,0.219,0.839,0.081,1.27l-0.368,1.146l-0.362,1.185l-0.74,2.324c-0.211,0.796-0.446,1.582-0.69,2.354
				c-0.253,0.781-0.479,1.553-0.689,2.362c-0.473,1.544-0.92,3.097-1.356,4.664c-0.43,1.581-0.844,3.148-1.222,4.726
				c-0.219,0.78-0.422,1.576-0.617,2.362c-0.2,0.806-0.376,1.586-0.572,2.382c-0.379,1.615-0.707,3.192-0.984,4.77
				c-0.158,0.795-0.31,1.577-0.42,2.372c-0.124,0.796-0.244,1.581-0.347,2.377c-0.058,0.407-0.099,0.805-0.135,1.203
				c-0.024,0.397-0.033,0.78-0.033,1.154c-0.024,0.067-0.044,0.158-0.044,0.298l0.288-0.374c0.245-0.354,0.488-0.705,0.717-1.06
				c0.225-0.35,0.462-0.714,0.676-1.097c0.462-0.705,0.925-1.443,1.37-2.171c0.438-0.738,0.894-1.477,1.323-2.215l2.609-4.495
				l2.535-4.529c0.107-0.197,0.262-0.307,0.456-0.365c0.184-0.047,0.381-0.032,0.572,0.077c0.194,0.115,0.312,0.264,0.379,0.456
				c0.04,0.191,0.017,0.388-0.092,0.57c-0.407,0.757-0.816,1.519-1.225,2.267c-0.412,0.752-0.838,1.5-1.27,2.271
				c-0.438,0.762-0.867,1.524-1.287,2.271c-0.424,0.738-0.87,1.501-1.322,2.263c-0.441,0.757-0.887,1.51-1.34,2.248
				c-0.446,0.737-0.901,1.451-1.366,2.199c-0.228,0.374-0.445,0.752-0.689,1.103c-0.245,0.35-0.489,0.729-0.741,1.112
				c-0.127,0.182-0.271,0.373-0.381,0.546c-0.125,0.168-0.266,0.34-0.393,0.513c-0.244,0.35-0.522,0.714-0.82,1.064
				c-0.131,0.182-0.312,0.287-0.529,0.297s-0.412-0.033-0.57-0.173c-0.136-0.109-0.234-0.259-0.287-0.45
				c-0.06-0.216-0.094-0.445-0.127-0.651c-0.017-0.226-0.051-0.441-0.077-0.667c-0.031-0.215-0.048-0.432-0.048-0.646
				c-0.026-0.216-0.026-0.432-0.026-0.662c0-0.431,0-0.839,0-1.26c0-0.407,0.026-0.839,0.074-1.27
				c0.061-0.807,0.12-1.649,0.204-2.465c0.091-0.828,0.184-1.657,0.326-2.486c0.111-0.806,0.236-1.635,0.373-2.44
				c0.125-0.819,0.269-1.624,0.402-2.42c0.137-0.805,0.285-1.61,0.459-2.43c0.157-0.796,0.325-1.601,0.486-2.42
				c0-0.125,0.009-0.192,0.03-0.249c-0.132,0.215-0.244,0.455-0.333,0.694c-0.113,0.239-0.203,0.475-0.313,0.69
				c-0.489,1.068-0.993,2.123-1.515,3.168c-0.516,1.044-1.055,2.089-1.584,3.125l-0.868,1.553l-0.851,1.558
				c-0.294,0.489-0.625,0.986-0.935,1.485c-0.338,0.513-0.692,0.987-1.078,1.467l-0.606,0.681c-0.134,0.134-0.261,0.264-0.361,0.354
				c-0.12,0.101-0.234,0.191-0.371,0.307l-0.42,0.326l-0.438,0.239c-0.137,0.058-0.312,0.115-0.529,0.173l-0.338,0.076
				c-0.043,0-0.12-0.01-0.201-0.023c-0.077-0.01-0.137-0.01-0.202-0.01c-0.103-0.033-0.244-0.101-0.407-0.216
				c-0.083-0.058-0.151-0.115-0.185-0.158c-0.033-0.058-0.083-0.115-0.144-0.183c-0.058-0.066-0.107-0.182-0.16-0.34l-0.077-0.297
				c-0.033-0.134-0.055-0.307-0.055-0.532c0-0.249,0.021-0.422,0.055-0.522c0.02-0.579,0.13-1.17,0.321-1.807
				c0.053-0.292,0.137-0.59,0.221-0.887c0.101-0.269,0.187-0.565,0.268-0.872l0.616-1.668c0.219-0.547,0.438-1.093,0.664-1.648
				c0.236-0.532,0.488-1.078,0.767-1.635c0.127-0.264,0.262-0.531,0.382-0.796c0.124-0.249,0.261-0.508,0.385-0.78
				c0.137-0.308,0.288-0.595,0.456-0.854c0.17-0.249,0.335-0.513,0.479-0.796c0.094-0.124,0.178-0.259,0.252-0.383
				c0.087-0.125,0.188-0.25,0.287-0.389l0.616-0.82c0.142-0.133,0.269-0.258,0.402-0.383c0.137-0.125,0.305-0.249,0.496-0.388
				c0.113-0.053,0.213-0.125,0.331-0.192c0.101-0.058,0.218-0.125,0.361-0.182l0.456-0.11c0.05-0.024,0.15-0.048,0.287-0.048h0.242
				c0.369-0.033,0.707,0.067,0.994,0.282c0.305,0.216,0.497,0.513,0.647,0.863c0.371-0.987,0.757-1.96,1.147-2.938
				C340.807,145.385,341.169,144.396,341.523,143.386z M337.406,151.274h0.034c0.021,0,0.038-0.024,0.038-0.058
				c0.035,0,0.053,0,0.053-0.019h-0.091l-0.237,0.109l-0.295,0.159l-0.572,0.454l-0.523,0.57c-0.201,0.217-0.381,0.432-0.564,0.633
				c-0.168,0.216-0.343,0.412-0.506,0.638l-0.942,1.386c-0.295,0.498-0.583,0.986-0.851,1.485c-0.278,0.513-0.532,1.025-0.783,1.548
				c-0.125,0.235-0.254,0.489-0.361,0.748c-0.111,0.272-0.219,0.532-0.329,0.796c-0.11,0.282-0.202,0.546-0.278,0.805
				c-0.093,0.249-0.177,0.522-0.254,0.786l-0.208,0.824l-0.12,0.786v0.681l0.094,0.172h0.076l0.288-0.124l0.284-0.173l0.276-0.239
				c0.206-0.11,0.391-0.293,0.582-0.532c0.11-0.101,0.201-0.216,0.278-0.307c0.076-0.091,0.168-0.206,0.254-0.307l0.976-1.386
				c0.271-0.44,0.556-0.93,0.86-1.476l0.848-1.51c0.137-0.24,0.271-0.499,0.407-0.753c0.116-0.258,0.245-0.517,0.376-0.757
				c0.381-0.854,0.768-1.683,1.148-2.512c0.369-0.839,0.758-1.678,1.144-2.554c-0.108,0.048-0.209,0.1-0.31,0.124
				c-0.094,0.024-0.214,0.033-0.338,0.033C337.718,151.342,337.564,151.322,337.406,151.274z"/>
		</g>
		<g>
			<path fill="#231F20" d="M352.765,151.721c-0.048,0.076-0.091,0.157-0.099,0.249c-0.017,0.067-0.043,0.144-0.093,0.201
				l-0.178,0.479l-0.371,0.986l-0.681,1.966c-0.218,0.656-0.429,1.304-0.625,1.965c-0.185,0.647-0.36,1.313-0.528,1.984l-0.5,1.975
				c-0.048,0.364-0.099,0.695-0.149,1.025c-0.052,0.325-0.096,0.656-0.127,0.978l-0.084,0.781l0.115-0.125
				c0.224-0.249,0.451-0.498,0.659-0.747c0.228-0.273,0.446-0.546,0.656-0.853c0.219-0.273,0.441-0.547,0.634-0.82
				c0.21-0.259,0.411-0.541,0.63-0.814l1.229-1.683l1.231-1.668l2.408-3.432c0.379-0.565,0.765-1.146,1.146-1.711
				c0.369-0.58,0.767-1.159,1.146-1.764c0.134-0.215,0.318-0.34,0.539-0.383c0.244-0.049,0.463,0,0.681,0.148
				c0.221,0.125,0.354,0.307,0.422,0.556c0.043,0.226,0,0.451-0.127,0.666c0,0.024-0.018,0.039-0.026,0.039
				c-0.007,0-0.017,0.009-0.017,0.043c-0.446,0.531-0.856,1.088-1.27,1.648c-0.413,0.565-0.815,1.121-1.224,1.701l-2.458,3.35
				l-2.451,3.428l-1.229,1.672l-1.264,1.678l-0.368,0.455c-0.104,0.183-0.228,0.331-0.365,0.408
				c-0.023,0.057-0.093,0.139-0.201,0.239l-0.093,0.091l-0.108,0.082l-0.084,0.033l-0.043,0.058h-0.053l-0.031,0.019h-0.084
				c0,0.034-0.025,0.049-0.076,0.049h-0.117c-0.094,0.019-0.117,0.033-0.101,0.019c0.007-0.01,0-0.019-0.026-0.019h-0.084
				c-0.074,0-0.211-0.024-0.369-0.067c-0.076-0.038-0.153-0.072-0.211-0.091c-0.043-0.034-0.103-0.072-0.153-0.13
				c-0.168-0.158-0.288-0.316-0.378-0.483c-0.041-0.116-0.101-0.254-0.154-0.413c-0.048-0.158-0.091-0.272-0.091-0.325
				c-0.017-0.14-0.033-0.24-0.05-0.341c-0.018-0.105-0.024-0.206-0.024-0.331c-0.026-0.34-0.026-0.714,0-1.136
				c0-0.173,0.007-0.373,0.024-0.546c0.017-0.168,0.033-0.341,0.05-0.508c0-0.196,0.02-0.379,0.026-0.556
				c0.017-0.173,0.033-0.354,0.064-0.547l0.154-1.068l0.124-1.021l0.742-4.203l0.733-4.165c0.084-0.488,0.319-0.877,0.744-1.145
				c0.402-0.288,0.838-0.38,1.305-0.288c0.463,0.081,0.84,0.331,1.117,0.738c0.287,0.412,0.371,0.843,0.271,1.308
				C352.851,151.433,352.824,151.558,352.765,151.721z M352.355,139.944l0.241-2.28c0.069-0.504,0.278-0.888,0.657-1.194
				c0.389-0.331,0.81-0.455,1.306-0.397c0.463,0.058,0.86,0.259,1.171,0.656c0.312,0.374,0.447,0.796,0.387,1.309
				c-0.061,0.201-0.107,0.383-0.168,0.522l-0.976,2.123c-0.163,0.364-0.424,0.599-0.783,0.714c-0.347,0.125-0.697,0.115-1.062-0.057
				c-0.271-0.135-0.479-0.326-0.626-0.566C352.355,140.524,352.303,140.251,352.355,139.944z"/>
		</g>
		<g>
			<path fill="#231F20" d="M365.07,157.03l0.244,0.288c0.104,0.124,0.185,0.182,0.237,0.191c0.11,0.067,0.192,0.091,0.252,0.091
				c0.109,0.058,0.228,0.058,0.371,0c0.048,0,0.177-0.023,0.402-0.091l0.446-0.191c0.086-0.082,0.236-0.173,0.457-0.288l0.412-0.359
				c0.565-0.488,1.105-1.068,1.584-1.729c0.219-0.293,0.437-0.614,0.654-0.93c0.221-0.332,0.439-0.672,0.659-1.021
				c0.211-0.364,0.422-0.705,0.606-1.069c0.201-0.35,0.371-0.723,0.529-1.102c0.12-0.216,0.287-0.374,0.516-0.465
				c0.234-0.092,0.47-0.092,0.714,0.024c0.219,0.101,0.372,0.272,0.472,0.531c0.094,0.24,0.094,0.465-0.016,0.686
				c0,0.034-0.016,0.043-0.016,0.067c-0.025,0.019-0.025,0.033-0.025,0.058c-0.465,0.699-0.921,1.403-1.357,2.123
				c-0.429,0.714-0.925,1.428-1.464,2.123c-0.254,0.326-0.521,0.666-0.803,1.006c-0.285,0.346-0.589,0.662-0.918,0.969l-0.529,0.432
				c-0.084,0.09-0.16,0.157-0.269,0.239c-0.094,0.058-0.196,0.124-0.294,0.167l-0.669,0.365c-0.158,0.124-0.402,0.215-0.724,0.297
				c-0.151,0.033-0.295,0.053-0.437,0.066c-0.146,0.011-0.304,0.011-0.462,0.011c-0.331-0.044-0.643-0.125-0.914-0.25
				c-0.268-0.067-0.486-0.182-0.646-0.316c-0.052,0.043-0.084,0.11-0.084,0.158c-0.354,0.772-0.725,1.452-1.104,2.042
				c-0.404,0.661-0.867,1.284-1.389,1.889c-0.125,0.143-0.279,0.268-0.43,0.431c-0.153,0.144-0.321,0.293-0.506,0.417
				c-0.17,0.139-0.345,0.264-0.539,0.379c-0.185,0.101-0.389,0.201-0.608,0.283c-0.242,0.109-0.479,0.167-0.707,0.201
				c-0.067,0.023-0.201,0.047-0.361,0.047h-0.37c-0.287,0-0.549-0.057-0.775-0.157c-0.127-0.072-0.262-0.115-0.379-0.173
				c-0.125-0.058-0.237-0.135-0.346-0.249c-0.109-0.101-0.208-0.216-0.311-0.307c-0.084-0.092-0.168-0.206-0.229-0.351l-0.321-0.637
				c-0.057-0.226-0.093-0.441-0.114-0.662c-0.043-0.225-0.067-0.431-0.094-0.656c0-0.215,0-0.422,0-0.613s0.026-0.397,0.051-0.613
				c0.025-0.226,0.043-0.417,0.074-0.59c0.026-0.173,0.066-0.364,0.119-0.556c0.061-0.374,0.125-0.762,0.226-1.112
				c0.096-0.374,0.204-0.752,0.313-1.136c0.132-0.354,0.262-0.705,0.386-1.068c0.12-0.341,0.245-0.705,0.389-1.055
				c0.142-0.341,0.271-0.704,0.429-1.045c0.144-0.34,0.321-0.695,0.506-1.035l0.251-0.499l0.278-0.521
				c0.113-0.168,0.211-0.331,0.278-0.489c0.096-0.168,0.203-0.33,0.347-0.489c0.108-0.2,0.212-0.374,0.32-0.531
				c0.109-0.173,0.225-0.331,0.361-0.499l0.378-0.488l0.491-0.456l0.521-0.488c0.177-0.101,0.396-0.249,0.709-0.44
				c0.285-0.174,0.604-0.265,0.933-0.283c0.129-0.024,0.338-0.058,0.615-0.058c0.135,0,0.245,0.033,0.329,0.058h0.16l0.034,0.043
				h0.084c0.462,0.066,0.824,0.307,1.085,0.681c0.261,0.388,0.347,0.805,0.261,1.275c0,0.033,0,0.043-0.017,0.043
				s-0.017,0.009-0.017,0.033l0.237,0.374c0.11,0.264,0.192,0.537,0.252,0.819c0.017,0.134,0.043,0.259,0.06,0.383
				c0.008,0.115,0.026,0.255,0.026,0.389c0.023,0.135,0.033,0.25,0.033,0.35c0,0.092,0,0.206,0,0.346l-0.119,1.27l-0.252,1.179
				c-0.053,0.197-0.108,0.374-0.15,0.557c-0.061,0.173-0.111,0.364-0.171,0.546c-0.057,0.173-0.101,0.331-0.144,0.489
				c-0.041,0.167-0.094,0.316-0.142,0.455L365.07,157.03z M361.794,151.596c-0.134,0.11-0.241,0.216-0.345,0.325
				c-0.091,0.116-0.211,0.23-0.343,0.364l-0.618,0.786c-0.058,0.077-0.11,0.158-0.132,0.226c-0.053,0.067-0.094,0.134-0.153,0.183
				l-0.287,0.441c-0.192,0.306-0.377,0.603-0.547,0.91c-0.178,0.292-0.336,0.589-0.472,0.896c-0.305,0.566-0.588,1.203-0.858,1.917
				l-0.328,0.979c-0.053,0.157-0.104,0.33-0.151,0.488c-0.033,0.158-0.067,0.331-0.093,0.499c-0.061,0.158-0.094,0.33-0.127,0.488
				c-0.024,0.159-0.051,0.316-0.084,0.489c-0.024,0.158-0.043,0.316-0.043,0.489c0,0.167,0,0.316,0,0.45
				c0,0.163,0.019,0.307,0.035,0.455c0,0.125,0.024,0.263,0.06,0.397c0.049,0.173,0.099,0.283,0.159,0.331l0.115,0.216
				c0.119,0.043,0.189,0.076,0.213,0.076l0.287,0.072h0.201c0.026,0,0.048,0,0.064-0.015c0.011-0.009,0.043-0.019,0.094-0.019
				c0.061,0,0.168-0.024,0.331-0.092c0.234-0.105,0.479-0.249,0.698-0.455l0.689-0.638c0.388-0.464,0.75-1.021,1.104-1.677
				c0.294-0.595,0.582-1.228,0.826-1.874c0.072-0.216,0.158-0.465,0.262-0.705c0.089-0.282,0.175-0.546,0.218-0.819
				c-0.043-0.216-0.103-0.417-0.168-0.647c-0.05-0.215-0.103-0.454-0.153-0.689c-0.06-0.23-0.093-0.456-0.124-0.685
				c-0.034-0.227-0.069-0.451-0.119-0.682c0-0.125,0-0.249-0.027-0.359c-0.017-0.105-0.017-0.215-0.017-0.33c0-0.125,0-0.24,0-0.341
				c0-0.091-0.017-0.206-0.04-0.34v-0.705c0.023-0.082,0.04-0.173,0.04-0.282c0-0.115,0-0.216,0-0.331L361.794,151.596z
				 M362.527,151.596h0.043l-0.043-0.038V151.596z"/>
		</g>
	</g>
	<g>
		<path fill="#F395BE" d="M302.697,117.28c-0.479-0.24-0.968-0.308-1.483-0.173l-1.154,0.364l-1.144,0.374
			c-0.381,0.114-0.75,0.229-1.121,0.354c-0.369,0.115-0.74,0.249-1.119,0.384c-0.767,0.239-1.515,0.503-2.248,0.762
			c-0.733,0.264-1.483,0.513-2.25,0.795c-1.475,0.547-2.938,1.088-4.412,1.658c-1.474,0.547-2.939,1.146-4.414,1.77
			c-0.74,0.297-1.457,0.613-2.18,0.934c-0.725,0.34-1.443,0.657-2.15,0.987c-0.707,0.351-1.421,0.69-2.138,1.045
			c-0.726,0.341-1.45,0.705-2.156,1.089c-0.707,0.373-1.397,0.771-2.08,1.184c-0.681,0.407-1.363,0.829-2.046,1.26
			c-0.681,0.432-1.348,0.882-1.997,1.352c-0.656,0.451-1.296,0.964-1.927,1.51c-0.295,0.273-0.599,0.557-0.894,0.839
			c-0.304,0.282-0.597,0.58-0.901,0.872c-0.269,0.307-0.539,0.628-0.801,0.944c-0.251,0.331-0.505,0.681-0.749,1.068
			c-0.218,0.384-0.432,0.758-0.616,1.155c-0.191,0.398-0.342,0.819-0.453,1.251c-0.134,0.489-0.201,0.944-0.201,1.352
			c-0.053,0.489-0.017,0.964,0.125,1.429c0.076,0.455,0.285,0.92,0.615,1.39c0.295,0.431,0.631,0.772,1.028,1.021
			c0.343,0.235,0.748,0.451,1.21,0.657c0.412,0.158,0.82,0.283,1.229,0.364c0.432,0.101,0.86,0.182,1.263,0.225
			c0.415,0.034,0.811,0.091,1.191,0.14c0.402,0.033,0.822,0.057,1.229,0.066c0.402,0.01,0.801,0.01,1.178-0.023h1.229
			c0.197-0.024,0.381-0.043,0.575-0.043c0.176,0,0.396,0,0.616,0l2.362-0.158l2.327-0.206l2.332-0.158l2.334-0.206l2.324-0.125
			c0.784-0.058,1.567-0.081,2.334-0.101c0.758-0.023,1.531,0,2.33,0.058c0.373,0,0.76,0.009,1.138,0.043
			c0.378,0.024,0.767,0.067,1.146,0.125c0.844,0.081,1.584,0.206,2.217,0.397c0.783,0.226,1.474,0.488,2.079,0.781
			c0.647,0.354,1.187,0.786,1.592,1.309c0.415,0.556,0.7,1.16,0.851,1.84l0.125,1.021c0,0.249-0.01,0.422-0.041,0.531v0.413
			c0,0.052-0.007,0.091-0.041,0.124c-0.053,0.374-0.119,0.738-0.221,1.055c-0.101,0.331-0.21,0.656-0.354,0.987
			c-0.158,0.315-0.339,0.647-0.53,0.953c-0.185,0.317-0.386,0.624-0.604,0.921c-0.246,0.297-0.5,0.589-0.744,0.853
			c-0.235,0.283-0.506,0.542-0.774,0.781c-0.292,0.273-0.597,0.537-0.875,0.771c-0.287,0.25-0.582,0.479-0.877,0.695
			c-0.63,0.465-1.255,0.905-1.876,1.328c-0.643,0.431-1.279,0.829-1.966,1.217c-0.68,0.384-1.37,0.738-2.036,1.078
			c-0.699,0.341-1.391,0.681-2.098,0.997c-1.439,0.656-2.87,1.271-4.284,1.84c-1.485,0.566-2.94,1.112-4.397,1.611
			c-1.457,0.513-2.933,1.002-4.431,1.452l-2.214,0.651c-0.371,0.11-0.75,0.226-1.115,0.341c-0.375,0.1-0.746,0.216-1.126,0.316
			c-0.767,0.216-1.515,0.422-2.273,0.613c-0.741,0.191-1.498,0.373-2.255,0.579c-0.768,0.192-1.527,0.374-2.27,0.542
			c-0.757,0.183-1.515,0.355-2.274,0.513c-0.386,0.102-0.767,0.216-1.143,0.283c-0.389,0.081-0.758,0.158-1.139,0.249l-2.291,0.503
			l-4.622,0.896c-0.379,0.043-0.758,0.11-1.146,0.182c-0.379,0.067-0.758,0.135-1.146,0.226l-1.139,0.148l-0.572,0.135l-0.577,0.082
			h-0.07c-0.388,0.076-0.676,0.272-0.867,0.565c-0.194,0.297-0.245,0.637-0.161,1.025c0.053,0.359,0.229,0.633,0.532,0.829
			c0.295,0.216,0.63,0.269,1.019,0.191l0.613-0.125l1.721-0.364l2.322-0.498l4.582-1.059c0.378-0.111,0.758-0.202,1.139-0.308
			c0.385-0.091,0.767-0.182,1.143-0.258l2.301-0.624c1.492-0.34,3.007-0.752,4.523-1.217c0.801-0.226,1.559-0.441,2.315-0.647
			c0.75-0.226,1.49-0.455,2.23-0.647l2.284-0.714l2.258-0.737c0.73-0.239,1.464-0.489,2.195-0.753
			c0.742-0.259,1.482-0.522,2.25-0.791c1.467-0.522,2.939-1.093,4.404-1.716c1.48-0.604,2.916-1.236,4.337-1.931
			c1.416-0.681,2.823-1.409,4.203-2.205c0.69-0.393,1.364-0.824,2.03-1.256c0.673-0.445,1.306-0.9,1.936-1.399
			c0.667-0.489,1.272-1.021,1.846-1.591c0.295-0.293,0.58-0.59,0.857-0.873c0.271-0.282,0.532-0.604,0.774-0.93
			c0.261-0.354,0.522-0.694,0.733-1.059c0.229-0.351,0.414-0.724,0.572-1.098c0.391-0.762,0.626-1.582,0.692-2.454
			c0-0.057,0.015-0.115,0.049-0.158v-1.117c0-0.431-0.049-0.862-0.115-1.27c-0.067-0.215-0.127-0.417-0.194-0.623
			c-0.067-0.216-0.16-0.407-0.269-0.623c-0.137-0.364-0.363-0.738-0.686-1.16c-0.148-0.157-0.285-0.316-0.436-0.465
			c-0.151-0.148-0.321-0.287-0.513-0.431c-0.288-0.273-0.65-0.522-1.055-0.729c-0.801-0.384-1.584-0.671-2.382-0.862
			c-0.372-0.116-0.774-0.192-1.182-0.26c-0.409-0.071-0.8-0.139-1.177-0.196c-0.414-0.058-0.81-0.091-1.213-0.11
			c-0.397-0.038-0.8-0.048-1.205-0.048c-0.793-0.058-1.577-0.076-2.365-0.058c-0.793,0.015-1.584,0.048-2.377,0.105l-2.367,0.11
			l-2.332,0.173l-2.365,0.158l-2.324,0.172c-0.391,0.02-0.776,0.043-1.172,0.054c-0.396,0.023-0.784,0.023-1.152,0.023
			c-0.204,0-0.392,0.01-0.583,0.01c-0.185,0.023-0.386,0.038-0.575,0.038h-1.143c-0.381-0.038-0.758-0.048-1.146-0.071
			c-0.379-0.011-0.76-0.044-1.136-0.101c-0.391-0.059-0.768-0.102-1.139-0.135c-0.361-0.058-0.717-0.125-1.076-0.23
			c-0.163-0.058-0.32-0.11-0.488-0.167c-0.163-0.049-0.328-0.115-0.489-0.158c-0.362-0.197-0.633-0.365-0.817-0.503
			c-0.269-0.217-0.472-0.433-0.615-0.647c-0.087-0.11-0.142-0.226-0.186-0.341c-0.032-0.124-0.066-0.259-0.103-0.383
			c-0.071-0.264-0.091-0.57-0.041-0.954c0.034-0.125,0.058-0.273,0.084-0.446c0.027-0.167,0.07-0.33,0.127-0.488
			c0.168-0.565,0.465-1.17,0.892-1.792c0.439-0.638,0.918-1.179,1.44-1.635c0.234-0.282,0.496-0.537,0.79-0.762
			c0.281-0.226,0.583-0.475,0.88-0.714c0.303-0.23,0.598-0.432,0.899-0.662c0.295-0.215,0.615-0.431,0.946-0.647
			c0.671-0.431,1.317-0.828,1.917-1.188c0.651-0.388,1.315-0.752,2.006-1.102c0.673-0.355,1.356-0.704,2.037-1.069
			c1.393-0.671,2.797-1.317,4.203-1.907c1.423-0.613,2.863-1.179,4.337-1.726c1.475-0.546,2.931-1.054,4.388-1.544
			c1.459-0.497,2.931-0.977,4.397-1.432c0.765-0.259,1.515-0.475,2.247-0.69c0.741-0.23,1.475-0.446,2.201-0.661l2.255-0.613
			l1.136-0.283c0.195-0.058,0.381-0.101,0.559-0.148c0.175-0.034,0.361-0.092,0.546-0.145c0.033,0,0.06-0.015,0.087-0.033
			c0.543-0.139,0.941-0.445,1.192-0.921c0.237-0.479,0.278-0.977,0.118-1.49C303.481,117.903,303.177,117.52,302.697,117.28z"/>
		<path fill="#F395BE" d="M352.486,139.714c0.355,0.163,0.71,0.174,1.072,0.058c0.345-0.124,0.615-0.349,0.773-0.714l0.985-2.132
			c0.043-0.125,0.103-0.307,0.153-0.523c0.064-0.488-0.077-0.934-0.389-1.309c-0.31-0.383-0.7-0.599-1.162-0.656
			c-0.496-0.048-0.928,0.077-1.297,0.398c-0.388,0.307-0.606,0.704-0.663,1.202l-0.247,2.281c-0.048,0.307-0.008,0.566,0.144,0.82
			C352.008,139.389,352.211,139.57,352.486,139.714z"/>
		<path fill="#F395BE" d="M372.987,149.276c-0.101-0.25-0.251-0.418-0.47-0.532c-0.244-0.115-0.481-0.115-0.716-0.023
			c-0.23,0.09-0.405,0.249-0.514,0.479c-0.162,0.359-0.337,0.738-0.531,1.098c-0.197,0.354-0.389,0.704-0.606,1.059
			c-0.221,0.351-0.438,0.705-0.657,1.021c-0.22,0.331-0.431,0.646-0.658,0.944c-0.489,0.646-1.02,1.227-1.584,1.711l-0.419,0.364
			c-0.219,0.115-0.363,0.216-0.447,0.297l-0.445,0.191c-0.228,0.067-0.354,0.082-0.414,0.082c-0.135,0.066-0.254,0.066-0.369,0
			c-0.051,0-0.137-0.015-0.244-0.082c-0.051-0.009-0.137-0.082-0.245-0.191l-0.244-0.297l-0.126-0.202
			c0.06-0.138,0.103-0.287,0.15-0.445c0.043-0.157,0.084-0.331,0.137-0.488c0.06-0.192,0.115-0.374,0.175-0.557
			c0.043-0.182,0.103-0.364,0.153-0.556l0.244-1.179l0.124-1.261c0-0.139,0-0.249,0-0.354c0-0.092-0.009-0.216-0.042-0.34
			c0-0.149-0.008-0.273-0.018-0.398c-0.015-0.125-0.038-0.249-0.064-0.384c-0.051-0.273-0.137-0.546-0.244-0.819l-0.245-0.374
			c0-0.023,0-0.033,0.024-0.033c0.008,0,0.017-0.015,0.017-0.048c0.077-0.45-0.009-0.872-0.261-1.261
			c-0.27-0.383-0.623-0.613-1.086-0.69h-0.084l-0.043-0.048h-0.158c-0.076-0.019-0.194-0.043-0.331-0.043
			c-0.261,0-0.47,0.024-0.613,0.043c-0.321,0.024-0.64,0.125-0.937,0.288c-0.302,0.191-0.529,0.35-0.697,0.45l-0.53,0.479
			l-0.489,0.465l-0.371,0.489c-0.134,0.157-0.254,0.315-0.361,0.488c-0.11,0.158-0.209,0.34-0.328,0.532
			c-0.135,0.158-0.244,0.315-0.336,0.489c-0.066,0.172-0.17,0.33-0.278,0.488l-0.196,0.364c-0.064,0.11-0.141,0.226-0.218,0.34
			c-0.369,0.557-0.758,1.137-1.136,1.702l-2.41,3.432l-1.221,1.677l-1.229,1.683c-0.219,0.273-0.437,0.546-0.643,0.819
			c-0.201,0.269-0.41,0.542-0.631,0.814c-0.218,0.308-0.431,0.566-0.648,0.839c-0.219,0.255-0.437,0.504-0.664,0.753l-0.12,0.124
			l0.087-0.785c0.023-0.316,0.076-0.647,0.119-0.974c0.055-0.33,0.099-0.66,0.158-1.025l0.488-1.95
			c0.176-0.681,0.355-1.352,0.53-2.009c0.201-0.661,0.403-1.309,0.626-1.965l0.697-1.965l0.361-0.978l0.17-0.489
			c0.048-0.057,0.082-0.11,0.091-0.201c0.024-0.081,0.058-0.163,0.111-0.254c0.06-0.158,0.083-0.269,0.083-0.359
			c0.102-0.455,0.01-0.901-0.268-1.309c-0.278-0.407-0.669-0.656-1.122-0.724c-0.472-0.081-0.9,0-1.306,0.269
			c-0.43,0.287-0.664,0.661-0.74,1.15l-0.387,2.166l-1.469,2.612l-2.601,4.51c-0.438,0.724-0.884,1.462-1.329,2.19
			c-0.446,0.747-0.904,1.467-1.366,2.167c-0.218,0.388-0.445,0.752-0.673,1.102c-0.235,0.364-0.473,0.714-0.724,1.068l-0.278,0.365
			c0-0.14,0.007-0.23,0.033-0.283c0-0.379,0.024-0.776,0.041-1.16c0.023-0.397,0.076-0.795,0.137-1.203
			c0.101-0.81,0.218-1.581,0.338-2.372c0.115-0.796,0.268-1.591,0.427-2.377c0.277-1.577,0.599-3.168,0.984-4.779
			c0.185-0.78,0.374-1.576,0.575-2.372c0.191-0.795,0.394-1.576,0.613-2.363c0.379-1.591,0.784-3.157,1.222-4.721
			c0.43-1.581,0.885-3.134,1.348-4.682c0.201-0.748,0.432-1.495,0.656-2.225l3.192-0.397h0.076c0.463-0.076,0.844-0.316,1.127-0.714
			c0.277-0.398,0.388-0.819,0.304-1.294c-0.081-0.455-0.325-0.819-0.707-1.112c-0.402-0.287-0.834-0.388-1.296-0.307l-1.627,0.273
			l0.404-1.261l0.354-1.184l0.379-1.136c0.135-0.441,0.104-0.863-0.087-1.27c-0.184-0.408-0.512-0.695-0.975-0.863
			c-0.472-0.192-0.908-0.192-1.34,0c-0.412,0.192-0.707,0.522-0.867,0.987l-0.051,0.091l-0.033,0.082l-0.211,0.68v0.044
			l-0.244,0.853l-0.496,1.635c-0.151,0.58-0.338,1.145-0.506,1.701c-0.023,0.092-0.051,0.173-0.084,0.25l-29.511,4.874l0.12-0.24
			l0.577-1.228l0.565-1.27c0.11-0.216,0.211-0.422,0.278-0.646c0.093-0.216,0.17-0.446,0.254-0.662
			c0.058-0.101,0.101-0.216,0.151-0.325c0.03-0.105,0.073-0.23,0.133-0.354c0.052-0.11,0.095-0.24,0.095-0.364
			c0.025-0.11,0.048-0.235,0.107-0.374l0.13-0.451c0-0.148,0.016-0.229,0.032-0.287v-0.657l-0.076-0.407l-0.129-0.297l-0.242-0.364
			l-0.405-0.373l-0.486-0.226c-0.146-0.034-0.305-0.048-0.488-0.048c-0.061,0-0.104-0.01-0.128-0.034
			c-0.026-0.01-0.067,0-0.116,0.034c-0.121,0-0.188,0.014-0.202,0.023c-0.043,0.01-0.077,0.024-0.137,0.024l-0.402,0.158
			l-0.244,0.158c-0.137,0.081-0.221,0.157-0.252,0.239c-0.053,0.033-0.086,0.067-0.103,0.091c-0.018,0.033-0.034,0.058-0.061,0.076
			l-0.201,0.24l-0.135,0.259c-0.093,0.148-0.17,0.273-0.193,0.364l-0.362,0.695l-0.539,1.304l-0.479,1.261
			c-0.094,0.229-0.17,0.445-0.254,0.66c-0.084,0.217-0.152,0.441-0.208,0.657c-0.188,0.465-0.331,0.887-0.448,1.261l-0.606,1.85
			l-2.947,0.479c-0.211,0.067-0.396,0.183-0.549,0.364c-0.142,0.168-0.194,0.359-0.142,0.575c0.024,0.249,0.127,0.446,0.312,0.595
			c0.175,0.157,0.379,0.201,0.63,0.144l2.114-0.235c-0.077,0.235-0.148,0.475-0.218,0.7c-0.068,0.239-0.137,0.479-0.185,0.719
			l-0.161,0.532l-0.445,1.102l-1.028,2.464l-0.245,0.604l-0.244,0.657l-0.488,1.212v0.058c-0.11,0.354-0.017,0.638,0.287,0.854
			c0.082,0.058,0.201,0.101,0.362,0.172c-0.134,0.45-0.244,0.93-0.345,1.395c-0.102,0.489-0.204,0.954-0.305,1.419
			c-0.219,0.877-0.415,1.74-0.572,2.637c-0.168,0.886-0.346,1.768-0.54,2.664l-0.244,1.318l-0.244,1.352l-0.402,2.646
			c-0.027,0.229-0.051,0.455-0.06,0.704c-0.018,0.239-0.052,0.479-0.111,0.681l-0.117,1.366c-0.023,0.216-0.041,0.441-0.041,0.689
			c0,0.24,0,0.479,0,0.695v0.738c0.034,0.134,0.041,0.249,0.041,0.359c0,0.115,0.026,0.23,0.086,0.379
			c0,0.101,0.021,0.234,0.074,0.407c0.033,0.043,0.051,0.115,0.068,0.191c0.009,0.091,0.052,0.173,0.103,0.25
			c0.021,0.139,0.134,0.287,0.318,0.445l0.285,0.249c0.06,0.034,0.12,0.058,0.185,0.077c0.07,0.023,0.137,0.048,0.187,0.048
			c0.058,0.033,0.125,0.043,0.185,0.043c0.07,0,0.12,0,0.145,0c0.057,0,0.109-0.01,0.134-0.02c0.043-0.014,0.097-0.023,0.151-0.023
			l0.447-0.125c0.229-0.115,0.463-0.249,0.743-0.407c0.351-0.24,0.714-0.561,1.101-0.935c0.162-0.201,0.32-0.373,0.479-0.532
			c0.18-0.172,0.33-0.34,0.458-0.536c0.302-0.351,0.58-0.724,0.841-1.079c0.262-0.373,0.522-0.747,0.801-1.136l1.455-2.281
			l1.398-2.291l0.649-1.184l0.667-1.18c0.429-0.795,0.857-1.576,1.279-2.372c0.01-0.014,0.026-0.033,0.033-0.058l-0.05,0.226
			l-0.372,2.032l-0.277,2.138l-0.084,1.054v1.146l0.084,0.614c0.017,0.115,0.043,0.206,0.076,0.297
			c0.024,0.101,0.067,0.216,0.12,0.364l0.208,0.398c0.077,0.134,0.201,0.258,0.362,0.373c0.11,0.081,0.302,0.168,0.572,0.283
			c0.06,0,0.103,0,0.144,0.009c0.041,0.024,0.092,0.024,0.145,0.024h0.328c0.026-0.024,0.058-0.033,0.081-0.033
			c0.077,0,0.153-0.01,0.206-0.034c0.092,0,0.209-0.033,0.369-0.081c0.11-0.067,0.209-0.101,0.302-0.158
			c0.095-0.034,0.194-0.077,0.305-0.135c0.194-0.114,0.369-0.229,0.54-0.354c0.157-0.111,0.309-0.25,0.455-0.385
			c0.285-0.272,0.556-0.531,0.79-0.795c0.228-0.264,0.456-0.532,0.665-0.839c0.438-0.579,0.843-1.149,1.229-1.716l1.147-1.792
			l1.144-1.897c0.026,0.249,0.053,0.512,0.061,0.771c0.016,0.249,0.05,0.523,0.109,0.796c0.048,0.135,0.084,0.283,0.101,0.432
			c0.007,0.148,0.024,0.297,0.051,0.422l0.124,0.407c0.043,0.115,0.094,0.282,0.213,0.498c0.049,0.081,0.092,0.158,0.142,0.249
			c0.034,0.082,0.094,0.173,0.178,0.288l0.329,0.234c0.06,0.059,0.127,0.105,0.217,0.125c0.113,0.024,0.196,0.048,0.271,0.081h0.445
			c0.06,0,0.18-0.033,0.339-0.081l0.479-0.234c0.17-0.092,0.295-0.183,0.415-0.298l0.335-0.283l0.415-0.464
			c-0.018,0.157-0.043,0.315-0.053,0.464c-0.024,0.102-0.051,0.283-0.051,0.523c0,0.226,0.026,0.397,0.051,0.541l0.076,0.288
			c0.058,0.157,0.108,0.282,0.168,0.358c0.053,0.059,0.104,0.106,0.142,0.174c0.035,0.047,0.103,0.091,0.179,0.157
			c0.168,0.101,0.303,0.183,0.413,0.206c0.06,0,0.127,0.01,0.201,0.024c0.076,0.01,0.153,0.01,0.201,0.01l0.328-0.067
			c0.22-0.072,0.398-0.115,0.542-0.173l0.445-0.249l0.413-0.316c0.127-0.115,0.253-0.215,0.361-0.321
			c0.119-0.077,0.234-0.2,0.371-0.34l0.614-0.69c0.371-0.465,0.735-0.953,1.061-1.452c0.321-0.513,0.649-1.001,0.938-1.5
			l0.857-1.558l0.861-1.543c0.539-1.035,1.077-2.08,1.584-3.125c0.526-1.055,1.024-2.099,1.514-3.178
			c0.117-0.215,0.211-0.432,0.309-0.68c0.094-0.25,0.214-0.475,0.339-0.705c-0.017,0.058-0.024,0.139-0.024,0.249
			c-0.16,0.819-0.338,1.635-0.499,2.43c-0.157,0.806-0.311,1.615-0.445,2.43c-0.136,0.796-0.278,1.602-0.405,2.406
			c-0.141,0.819-0.261,1.639-0.378,2.469c-0.137,0.805-0.235,1.634-0.321,2.473c-0.088,0.819-0.141,1.648-0.201,2.463
			c-0.058,0.432-0.084,0.854-0.084,1.271c0,0.412,0,0.829,0,1.266c0,0.225,0.008,0.431,0.026,0.656
			c0.008,0.216,0.024,0.422,0.058,0.657c0.026,0.215,0.061,0.431,0.076,0.647c0.037,0.215,0.067,0.445,0.125,0.646
			c0.053,0.197,0.153,0.355,0.287,0.456c0.158,0.139,0.355,0.191,0.573,0.182c0.22-0.01,0.396-0.115,0.532-0.297
			c0.295-0.359,0.565-0.714,0.816-1.078c0.135-0.158,0.262-0.326,0.396-0.499c0.109-0.182,0.244-0.364,0.371-0.546
			c0.251-0.394,0.496-0.758,0.74-1.121c0.245-0.341,0.472-0.705,0.697-1.094c0.465-0.738,0.918-1.476,1.366-2.199
			c0.455-0.753,0.901-1.501,1.33-2.248c0.462-0.771,0.91-1.524,1.33-2.271c0.193-0.34,0.396-0.695,0.592-1.035l-0.287,1.624
			l-0.12,1.021l-0.168,1.069c-0.023,0.183-0.051,0.374-0.067,0.546c-0.01,0.183-0.026,0.351-0.026,0.542
			c-0.007,0.173-0.033,0.346-0.048,0.522c0,0.173-0.026,0.364-0.026,0.562c-0.023,0.393-0.023,0.78,0,1.13
			c0,0.106,0.026,0.221,0.026,0.307c0.015,0.105,0.041,0.217,0.048,0.355c0,0.058,0.043,0.158,0.094,0.316
			c0.06,0.158,0.117,0.297,0.168,0.422c0.076,0.158,0.196,0.316,0.371,0.488c0.043,0.058,0.1,0.092,0.161,0.125
			c0.05,0.01,0.117,0.043,0.208,0.076c0.163,0.049,0.278,0.082,0.364,0.082h0.076c0.034,0,0.041,0,0.026,0.023
			c-0.01,0,0.015,0,0.099-0.023h0.12c0.058,0,0.081-0.01,0.081-0.043h0.087l0.033-0.039h0.043l0.043-0.043l0.089-0.033l0.103-0.092
			l0.092-0.09c0.119-0.102,0.18-0.183,0.203-0.23c0.135-0.086,0.262-0.226,0.369-0.417l0.371-0.446l1.273-1.677l1.229-1.668
			l2.442-3.441l0.16-0.216c-0.093,0.326-0.153,0.657-0.203,0.997c-0.049,0.192-0.099,0.374-0.118,0.546
			c-0.033,0.183-0.05,0.374-0.084,0.6c-0.025,0.221-0.033,0.422-0.033,0.613c0,0.183,0,0.389,0,0.614
			c0.008,0.215,0.041,0.431,0.076,0.646c0.024,0.216,0.061,0.446,0.118,0.661l0.336,0.647c0.043,0.148,0.129,0.259,0.218,0.35
			c0.103,0.091,0.195,0.196,0.313,0.298c0.101,0.114,0.208,0.206,0.338,0.258c0.124,0.058,0.261,0.105,0.386,0.158
			c0.23,0.105,0.482,0.163,0.773,0.163h0.382c0.151,0,0.288-0.023,0.354-0.033c0.228-0.034,0.463-0.105,0.707-0.206
			c0.211-0.082,0.412-0.172,0.604-0.283c0.197-0.115,0.372-0.239,0.532-0.379c0.192-0.134,0.362-0.282,0.522-0.431
			c0.144-0.144,0.285-0.283,0.422-0.417c0.516-0.604,0.978-1.236,1.388-1.897c0.381-0.59,0.75-1.271,1.104-2.033
			c0-0.043,0.033-0.114,0.074-0.157c0.17,0.134,0.389,0.239,0.65,0.315c0.277,0.116,0.581,0.197,0.907,0.25
			c0.163,0,0.321,0,0.472-0.02c0.154-0.015,0.288-0.033,0.432-0.058c0.326-0.091,0.572-0.173,0.733-0.282l0.654-0.379
			c0.103-0.043,0.211-0.11,0.305-0.183c0.103-0.066,0.177-0.144,0.271-0.226l0.529-0.44c0.321-0.307,0.633-0.627,0.918-0.968
			c0.278-0.341,0.547-0.681,0.801-1.012c0.529-0.69,1.027-1.404,1.464-2.108c0.432-0.714,0.887-1.419,1.349-2.138
			c0-0.02,0.008-0.033,0.024-0.043c0.01-0.023,0.019-0.044,0.019-0.067C373.081,149.755,373.081,149.516,372.987,149.276z
			 M315.76,133.096 M336.712,152.07c-0.369,0.829-0.757,1.668-1.144,2.521c-0.127,0.239-0.252,0.488-0.381,0.747
			c-0.125,0.264-0.261,0.513-0.394,0.752l-0.853,1.52c-0.3,0.546-0.587,1.035-0.855,1.477l-0.978,1.385
			c-0.084,0.105-0.171,0.206-0.252,0.307c-0.076,0.091-0.171,0.192-0.278,0.307c-0.196,0.249-0.381,0.422-0.574,0.537l-0.285,0.234
			l-0.298,0.159l-0.302-0.418l0.11-1.375c0.077-0.273,0.506-1.735,0.606-1.975c0.168-0.445,0.58-1.352,0.699-1.544l1.371-2.66
			c0,0,1.517-2.837,2.41-3.44c0,0,2.141-0.93,2.238-0.963c0.094-0.024,0.194-0.082,0.305-0.125
			C337.479,150.388,337.093,151.241,336.712,152.07z M339.785,144.737c-0.375,0.973-0.764,1.96-1.143,2.952
			c-0.144-0.364-0.345-0.646-0.648-0.867c-0.276-0.211-0.614-0.316-0.995-0.293h-0.244c-0.132,0-0.226,0.024-0.286,0.044
			l-0.445,0.124c-0.134,0.048-0.254,0.115-0.361,0.196c-0.11,0.058-0.221,0.11-0.328,0.168c-0.201,0.139-0.364,0.264-0.497,0.388
			c-0.129,0.125-0.271,0.259-0.414,0.398l-0.606,0.805c-0.11,0.158-0.201,0.274-0.285,0.398c-0.076,0.115-0.16,0.249-0.244,0.384
			c-0.16,0.272-0.331,0.536-0.489,0.795c-0.167,0.264-0.32,0.556-0.455,0.844c-0.127,0.269-0.261,0.532-0.378,0.791
			c-0.135,0.263-0.262,0.536-0.387,0.795c-0.277,0.557-0.531,1.094-0.759,1.635c-0.245,0.561-0.466,1.103-0.676,1.639l-0.286,0.782
			c-0.107,0.172-0.218,0.35-0.325,0.531c-0.087,0.105-0.163,0.206-0.228,0.307c-0.061,0.091-0.13,0.196-0.188,0.307l-0.445,0.57
			c-0.077,0.101-0.16,0.216-0.228,0.307c-0.07,0.092-0.146,0.168-0.219,0.259l-0.455,0.523l-0.495,0.497
			c-0.214,0.164-0.381,0.273-0.492,0.331h-0.031c-0.033-0.023-0.033-0.09-0.033-0.201c-0.036-0.081-0.053-0.196-0.053-0.33
			l-0.084-0.647c0-0.216,0-0.455,0-0.705c0-0.248,0.017-0.488,0.043-0.737c0.094-1.002,0.209-1.965,0.372-2.895
			c0.03-0.14,0.038-0.264,0.055-0.364c0.019-0.115,0.053-0.24,0.12-0.374l0.104-0.729l0.217-0.738v-0.091l0.075-0.158h-0.041
			l0.041-0.092l0.033-0.19l0.051-0.092c0-0.015,0.009-0.058,0.043-0.082l-0.043-0.565c-0.034-0.373-0.159-0.719-0.394-1.001
			c-0.23-0.283-0.539-0.465-0.92-0.542c-0.463-0.115-0.885-0.048-1.264,0.202c-0.378,0.239-0.623,0.589-0.739,1.059
			c0,0.053-0.011,0.101-0.036,0.125v0.124l-0.082,0.192v0.043l-0.127,0.503c-0.053,0.158-0.11,0.316-0.16,0.475
			c-0.058,0.173-0.118,0.316-0.171,0.455c-0.098,0.331-0.2,0.657-0.299,0.978c-0.094,0.326-0.214,0.647-0.348,0.939
			c-0.463,1.203-0.992,2.444-1.592,3.724l-0.935,1.75c-0.167,0.307-0.338,0.59-0.521,0.844c-0.176,0.259-0.355,0.522-0.549,0.791
			c-0.077,0.139-0.168,0.272-0.269,0.388c-0.094,0.134-0.202,0.259-0.305,0.397l-0.604,0.705c-0.278,0.234-0.499,0.397-0.649,0.475
			l-0.345,0.172c-0.018,0-0.044,0-0.044,0.01c-0.023,0.023-0.04,0.023-0.076,0.023h-0.034c-0.023-0.033-0.05-0.066-0.05-0.124
			s-0.01-0.101-0.041-0.158c0-0.058,0-0.125-0.007-0.206c-0.01-0.082-0.026-0.148-0.026-0.191v-0.92l0.124-0.964l0.154-0.992
			l0.21-0.973l0.496-1.932c0.186-0.647,0.386-1.294,0.604-1.932c0.223-0.646,0.44-1.271,0.658-1.907l0.37-0.987l0.363-0.93
			c0.094-0.14,0.151-0.288,0.219-0.455c0.076-0.159,0.137-0.316,0.193-0.489c0.101-0.135,0.17-0.283,0.204-0.44l0.125-0.206
			l0.11-0.25l0.125-0.407c0.086-0.455-0.008-0.877-0.262-1.275c-0.252-0.373-0.611-0.613-1.078-0.724
			c-0.463-0.081-0.892,0.01-1.264,0.26c-0.386,0.263-0.638,0.613-0.73,1.078l-0.092,0.537l-0.129,0.483l-0.41,2.09l-0.937,1.965
			l-2.485,4.735l-0.621,1.145l-0.691,1.15l-1.348,2.282c-0.251,0.383-0.488,0.762-0.735,1.121c-0.252,0.379-0.496,0.738-0.747,1.093
			c-0.537,0.724-1.06,1.428-1.582,2.075c-0.137,0.173-0.278,0.331-0.432,0.503c-0.15,0.149-0.309,0.308-0.472,0.441
			c-0.134,0.139-0.285,0.264-0.446,0.389c-0.158,0.124-0.312,0.234-0.452,0.35c-0.163,0.139-0.331,0.216-0.489,0.249
			c-0.033,0.023-0.086,0.033-0.162,0.033l-0.041-0.033c0-0.033-0.01-0.058-0.015-0.067c-0.018-0.009-0.026-0.043-0.026-0.101
			c-0.033-0.058-0.043-0.148-0.043-0.287c-0.024-0.11-0.034-0.307-0.034-0.565c-0.06-0.191-0.06-0.398,0-0.614
			c0-0.225,0-0.44,0.017-0.637c0.018-0.202,0.027-0.417,0.061-0.633c0.058-0.445,0.125-0.877,0.175-1.318
			c0.077-0.431,0.151-0.862,0.228-1.294c0.086-0.431,0.178-0.863,0.278-1.294c0.093-0.422,0.193-0.853,0.304-1.284
			c0.043-0.216,0.092-0.432,0.135-0.657c0.051-0.215,0.094-0.445,0.153-0.646l0.325-1.275l0.684-2.578
			c0.134-0.432,0.277-0.862,0.404-1.279c0.118-0.422,0.243-0.854,0.379-1.284c0.245-0.854,0.499-1.692,0.76-2.531
			c0.262-0.854,0.537-1.691,0.832-2.545c0.284-0.863,0.546-1.716,0.816-2.545c0.278-0.839,0.566-1.678,0.861-2.521
			c0.055-0.216,0.107-0.417,0.184-0.613c0.067-0.192,0.133-0.385,0.219-0.6c0.144-0.282,0.287-0.546,0.455-0.806
			c0.16-0.248,0.312-0.546,0.447-0.843l29.503-3.634l-0.441,1.275c-0.191,0.542-0.386,1.078-0.577,1.635
			c-0.197,0.531-0.392,1.088-0.616,1.634C340.529,142.758,340.167,143.76,339.785,144.737z M361.701,155.967
			c-0.092,0.249-0.176,0.489-0.262,0.714c-0.244,0.647-0.521,1.284-0.814,1.859c-0.354,0.661-0.727,1.218-1.103,1.683l-0.69,0.661
			c-0.223,0.192-0.458,0.341-0.701,0.45c-0.159,0.049-0.278,0.082-0.327,0.082c-0.05,0-0.086,0.009-0.103,0.009
			c-0.017,0.024-0.033,0.024-0.06,0.024h-0.202l-0.294-0.081c-0.026,0-0.091-0.02-0.194-0.077l-0.135-0.206
			c-0.047-0.058-0.107-0.168-0.15-0.331c-0.034-0.134-0.051-0.282-0.069-0.407c-0.008-0.134-0.024-0.282-0.024-0.455
			c0-0.134,0-0.282,0-0.441c0-0.172,0.017-0.33,0.051-0.498c0.026-0.158,0.05-0.321,0.076-0.489c0.033-0.157,0.07-0.33,0.117-0.488
			c0.041-0.158,0.067-0.331,0.11-0.489c0.034-0.157,0.094-0.33,0.151-0.488l0.312-0.973c0.278-0.729,0.556-1.366,0.868-1.932
			c0.133-0.297,0.287-0.604,0.462-0.896c0.178-0.297,0.364-0.604,0.559-0.911l0.284-0.44c0.049-0.048,0.092-0.115,0.145-0.182
			c0.033-0.067,0.084-0.148,0.134-0.23l0.623-0.771c0.127-0.135,0.245-0.259,0.346-0.364c0.091-0.11,0.211-0.216,0.345-0.326
			l0.16-0.206c0,0.101,0,0.216,0,0.316c0,0.124-0.007,0.216-0.033,0.298v0.694c0.026,0.134,0.033,0.249,0.033,0.351
			c0,0.091,0,0.206,0,0.35c0,0.104,0,0.215,0.027,0.321c0.017,0.109,0.017,0.239,0.017,0.363c0.048,0.216,0.091,0.441,0.124,0.666
			c0.027,0.24,0.07,0.466,0.12,0.686c0.058,0.249,0.115,0.475,0.158,0.69c0.06,0.226,0.127,0.441,0.177,0.656
			C361.888,155.42,361.794,155.693,361.701,155.967z"/>
	</g>
	<g>
		<polyline fill="none" stroke="#FFFFFF" stroke-width="0.6421" stroke-miterlimit="10" points="355.471,123.649 370.773,86.419 
			385.47,124.296 		"/>
		
			<line fill="none" stroke="#FFFFFF" stroke-width="0.6421" stroke-miterlimit="10" x1="360.826" y1="110.628" x2="380.165" y2="110.628"/>
	</g>
</g>
</svg>
